<svg width="146" height="154" viewBox="0 0 146 154" fill="none" xmlns="http://www.w3.org/2000/svg">
    <path
        d="M72.7928 109.223C77.4686 109.223 81.2591 107.707 81.2591 105.837C81.2591 103.967 77.4686 102.45 72.7928 102.45C68.117 102.45 64.3266 103.967 64.3266 105.837C64.3266 107.707 68.117 109.223 72.7928 109.223Z"
        fill="black" />
    <path
        d="M137.444 79.4154C137.367 78.6399 137.265 77.8441 137.163 77.0449C138.464 76.9263 139.595 76.1068 140.045 74.8572C142.05 69.344 143.073 63.6614 143.073 57.9721C143.073 50.725 141.43 43.5659 138.183 36.7015C137.397 35.0353 135.419 34.3005 133.733 35.0624L124.874 39.0585L131.135 29.092C131.911 27.8593 131.806 26.2609 130.885 25.1366C119.124 10.8693 100.518 1.7088 79.83 0.00877312C78.2011 -0.102981 76.7923 0.862171 76.3216 2.37594L72.8131 13.5582L69.3081 2.37594C68.834 0.862171 67.3643 -0.0860489 65.7963 0.00877312C45.1048 1.7088 26.496 10.8693 14.7414 25.1366C13.8169 26.2609 13.7086 27.8593 14.4908 29.092L20.7491 39.0585L11.8866 35.0624C10.2069 34.3072 8.2292 35.0387 7.44014 36.7015C4.19249 43.5659 2.54665 50.7318 2.54665 57.9721C2.54665 63.6716 3.56937 69.3474 5.58095 74.8606C6.05506 76.1678 7.28098 77.0279 8.6559 77.0686C8.55769 77.8035 8.46625 78.5282 8.39175 79.2326C3.29845 83.293 0 89.7239 0 96.9473C0 107.002 6.38694 115.512 15.1173 118.252C26.1641 139.387 48.322 153.035 72.9147 153.035C97.5312 153.035 119.72 139.353 130.76 118.171C139.351 115.353 145.623 106.904 145.623 96.9406C145.603 89.8323 142.409 83.486 137.444 79.4154ZM124.464 105.624C123.482 105.624 122.557 105.403 121.697 105.007C114.792 125.049 95.584 139.489 72.9046 139.489C50.2049 139.489 30.9662 125.021 24.0882 104.943C23.1738 105.38 22.1816 105.624 21.1284 105.624C16.9156 105.624 13.5358 101.743 13.5358 96.9473C13.5358 92.1656 16.9088 88.2745 21.1114 88.2677C22.273 90.2522 23.5971 92.1622 25.1109 93.9841C23.7021 89.1448 22.93 84.1768 22.93 79.2393C22.93 78.5011 23.0045 77.8068 23.0417 77.0889H27.136C27.0581 77.7865 27.092 78.5011 27.3087 79.1885L31.2879 91.8879C31.9516 94.0079 33.909 95.4505 36.1373 95.4505H58.0108C59.8225 95.4505 61.4955 94.4853 62.4064 92.9208L69.7754 80.2214C70.3308 79.2563 70.5035 78.1658 70.385 77.0889H75.2277C75.1126 78.1523 75.2853 79.2563 75.8407 80.2214L83.2097 92.9208C84.1207 94.4853 85.7936 95.4505 87.6054 95.4505H109.479C111.697 95.4505 113.661 94.0079 114.332 91.8879L118.307 79.1885C118.521 78.5011 118.558 77.7865 118.48 77.0889H122.574C122.615 77.8068 122.686 78.5011 122.686 79.2393C122.686 84.1735 121.914 89.1516 120.505 93.9841C122.009 92.1656 123.343 90.2488 124.505 88.2677C128.707 88.2779 132.08 92.1554 132.08 96.9473C132.057 101.743 128.677 105.624 124.464 105.624Z"
        fill="black" />
    <path
        d="M105.721 69.4539C105.721 70.5287 105.404 71.5795 104.809 72.4736C104.213 73.3677 103.367 74.0647 102.376 74.4767C101.385 74.8887 100.294 74.997 99.2421 74.7881C98.1898 74.5791 97.223 74.0622 96.464 73.3027C95.7049 72.5433 95.1877 71.5753 94.9777 70.5213C94.7677 69.4674 94.8744 68.3747 95.2842 67.3814C95.6941 66.3882 96.3887 65.539 97.2803 64.9413C98.1718 64.3435 99.2202 64.0241 100.293 64.0234C101.005 64.0229 101.711 64.163 102.369 64.4356C103.027 64.7083 103.625 65.1082 104.129 65.6124C104.633 66.1167 105.033 66.7155 105.306 67.3746C105.579 68.0337 105.72 68.7403 105.721 69.4539ZM58.1458 74.6013L58.1458 45.5552C58.1458 43.2279 58.0907 40.8969 58.2375 38.5695C58.5825 33.4221 61.7972 29.3042 66.311 28.0467C71.3019 26.6422 76.8359 28.3298 79.5625 32.3816C82.4359 36.6576 82.5717 41.2829 80.3699 45.8494C78.3111 50.096 74.5129 51.699 69.9587 51.7652C67.1697 51.8057 64.377 51.7652 61.4926 51.7652V59.5635C65.4486 59.5635 69.2321 59.6849 73.0046 59.5121C74.8914 59.4592 76.7544 59.076 78.5093 58.3796C85.8488 55.2471 89.1956 49.2577 90.014 41.5917C90.4234 37.7325 89.6822 33.8383 87.8841 30.4008C86.086 26.9633 83.3115 24.1367 79.9111 22.278C72.8946 18.4174 63.7679 19.0094 57.7641 23.7891C52.0687 28.3151 49.7751 34.4295 49.7751 41.5366L49.7751 74.5903L58.1458 74.6013ZM81.7644 74.6013H90.1167V51.8057C89.5406 53.8499 86.9571 57.9973 81.7423 60.3982C81.768 63.13 81.768 69.9834 81.7644 74.5903V74.6013Z"
        fill="#F0F0F0" />
</svg>