<svg width="58" height="56" viewBox="0 0 58 56" fill="none" xmlns="http://www.w3.org/2000/svg">
    <path
        d="M57.9951 49.7084C57.9958 50.7832 57.6724 51.8341 57.0655 52.7281C56.4587 53.6222 55.5959 54.3193 54.586 54.7312C53.5762 55.1432 52.4648 55.2516 51.3923 55.0426C50.3198 54.8336 49.3344 54.3167 48.5608 53.5573C47.7872 52.7978 47.26 51.8299 47.046 50.7759C46.832 49.7219 46.9407 48.6292 47.3584 47.6359C47.7761 46.6427 48.4841 45.7935 49.3928 45.1958C50.3014 44.5981 51.37 44.2786 52.4633 44.2779C53.1893 44.2774 53.9082 44.4175 54.5791 44.6902C55.25 44.9628 55.8597 45.3627 56.3733 45.867C56.887 46.3712 57.2946 46.97 57.5729 47.6291C57.8511 48.2883 57.9946 48.9948 57.9951 49.7084ZM9.50701 54.8558L9.50701 25.8098C9.50701 23.4824 9.45091 21.1514 9.60051 18.824C9.95209 13.6766 13.2285 9.55868 17.829 8.30124C22.9157 6.89674 28.5559 8.58435 31.3349 12.6361C34.2635 16.9121 34.4019 21.5374 32.1577 26.1039C30.0595 30.3505 26.1884 31.9536 21.5468 32.0197C18.7042 32.0602 15.8579 32.0197 12.9181 32.0197L12.9181 39.8181C16.95 39.8181 20.8062 39.9394 24.6511 39.7666C26.5741 39.7138 28.4729 39.3305 30.2614 38.6342C37.7419 35.5016 41.1529 29.5122 41.987 21.8463C42.4042 17.987 41.6488 14.0928 39.8162 10.6553C37.9836 7.21787 35.1559 4.39127 31.6902 2.53247C24.5389 -1.32808 15.237 -0.736129 9.11803 4.0436C3.31322 8.56964 0.975586 14.684 0.975586 21.7911L0.975586 54.8448L9.50701 54.8558ZM33.579 54.8558H42.0917V32.0602C41.5045 34.1044 38.8714 38.2518 33.5566 40.6527C33.5828 43.3845 33.5828 50.2379 33.579 54.8448V54.8558Z"
        fill="white" />
</svg>