<svg width="20" height="20" viewBox="0 0 20 20" fill="none" xmlns="http://www.w3.org/2000/svg">
<path d="M10 2.20002C12.0687 2.20002 14.0527 3.02181 15.5155 4.48459C16.9782 5.94738 17.8 7.93134 17.8 10C17.8 12.0687 16.9782 14.0527 15.5155 15.5155C14.0527 16.9782 12.0687 17.8 10 17.8V2.20002ZM10 0.400024C7.45395 0.400024 5.01215 1.41145 3.2118 3.2118C1.41145 5.01215 0.400024 7.45395 0.400024 10C0.400024 12.5461 1.41145 14.9879 3.2118 16.7882C5.01215 18.5886 7.45395 19.6 10 19.6C12.5461 19.6 14.9879 18.5886 16.7882 16.7882C18.5886 14.9879 19.6 12.5461 19.6 10C19.6 7.45395 18.5886 5.01215 16.7882 3.2118C14.9879 1.41145 12.5461 0.400024 10 0.400024Z" fill="white"/>
</svg>
