<svg width="24" height="24" viewBox="0 0 24 24" fill="none" xmlns="http://www.w3.org/2000/svg">
<path d="M12 4.20002C14.0687 4.20002 16.0527 5.02181 17.5155 6.48459C18.9782 7.94738 19.8 9.93134 19.8 12C19.8 14.0687 18.9782 16.0527 17.5155 17.5155C16.0527 18.9782 14.0687 19.8 12 19.8V4.20002ZM12 2.40002C9.45395 2.40002 7.01215 3.41145 5.2118 5.2118C3.41145 7.01215 2.40002 9.45395 2.40002 12C2.40002 14.5461 3.41145 16.9879 5.2118 18.7883C7.01215 20.5886 9.45395 21.6 12 21.6C14.5461 21.6 16.9879 20.5886 18.7883 18.7883C20.5886 16.9879 21.6 14.5461 21.6 12C21.6 9.45395 20.5886 7.01215 18.7883 5.2118C16.9879 3.41145 14.5461 2.40002 12 2.40002Z" fill="white"/>
</svg>
